<?xml version="1.0" encoding="UTF-8"?><svg id="Layer_2" xmlns="http://www.w3.org/2000/svg" viewBox="0 0 365.93 180.16"><defs><style>.cls-1{fill:#e3f4b8;stroke:#000;stroke-miterlimit:10;stroke-width:3px;}</style></defs><g id="Layer_1-2"><g><path class="cls-1" d="m348.43,85.08h-101.2c.76-1.86,1.18-3.88,1.18-6V17.5c0-8.8-7.2-16-16-16H17.5C8.7,1.5,1.5,8.7,1.5,17.5v61.58c0,8.8,7.2,16,16,16h35.18c-.76,1.86-1.18,3.88-1.18,6v61.58c0,8.8,7.2,16,16,16h280.93c8.8,0,16-7.2,16-16v-61.58c0-8.8-7.2-16-16-16Z"/><path d="m59.14,74.12v8.07H17.63V16.66h41.41v8.07H26.27v19.66h29.25v8.17h-29.25v21.56h32.86Z"/><path d="m109.76,65.58h-30.68l-6.27,16.62h-8.74l25.65-65.54h9.69l25.55,65.54h-8.93l-6.27-16.62Zm-2.85-7.79l-12.44-33.05-12.44,33.05h24.89Z"/><path d="m157.54,53.89l-9.12-1.9c-12.54-2.56-18.52-8.36-18.52-17.86,0-11.02,9.5-18.62,23.27-18.62s22.04,6.93,23.18,18.71h-8.64c-1.04-7.22-6.17-11.02-14.53-11.02-9.31,0-14.63,3.89-14.63,10.54,0,5.7,3.23,8.45,11.78,10.26l9.4,1.99c11.78,2.47,17.48,8.45,17.48,18.14,0,11.97-8.64,19.19-22.89,19.19-15.1,0-24.7-7.12-26.5-19.76h8.74c1.61,7.98,7.6,12.06,17.76,12.06,9.31,0,14.44-3.99,14.44-11.11,0-5.98-3.04-8.93-11.21-10.64Z"/><path d="m231.53,24.73h-21.09v57.47h-8.64V24.73h-21.09v-8.07h50.82v8.07Z"/><path d="m133.97,164.64h-8.45v-55.28l-19.95,55.28h-7.41l-19.95-55.28v55.28h-8.36v-65.54h12.44l19.57,54.52,19.57-54.52h12.54v65.54Z"/><path d="m189.73,156.56v8.07h-41.51v-65.54h41.41v8.07h-32.77v19.66h29.25v8.17h-29.25v21.56h32.86Z"/><path d="m255.93,131.77c0,20.33-14.15,32.86-33.91,32.86h-21.37v-65.54h21.37c19.76,0,33.91,12.35,33.91,32.67Zm-9.02,0c0-15.67-9.88-24.7-25.08-24.7h-12.44v49.58h12.44c15.2,0,25.08-9.21,25.08-24.89Z"/><path d="m276.44,99.1v65.54h-8.64v-65.54h8.64Z"/><path d="m330.87,148.01h-30.68l-6.27,16.62h-8.74l25.65-65.54h9.69l25.55,65.54h-8.93l-6.27-16.62Zm-2.85-7.79l-12.44-33.05-12.44,33.05h24.89Z"/></g></g></svg>