<?xml version="1.0" encoding="UTF-8"?>
<svg id="Lag_2" data-name="Lag 2" xmlns="http://www.w3.org/2000/svg" viewBox="0 0 400.23 175.46">
  <defs>
    <style>
      .cls-1 {
        fill: #fff;
        stroke-width: 0px;
      }
    </style>
  </defs>
  <g id="_Слой_1" data-name="Слой 1">
    <g>
      <path class="cls-1" d="m102.56,38.52c0,23.44-16.4,38.52-42.15,38.52h-30.7V0h30.7c25.75,0,42.15,15.19,42.15,38.52Zm-24.76,0c0-9.24-5.94-15.85-17.39-15.85h-5.94v31.69h5.94c11.44,0,17.39-6.49,17.39-15.85Z"/>
      <path class="cls-1" d="m153.73,65.15h-21.79l-3.3,11.88h-26.63L127.76,0h30.15l25.75,77.03h-26.63l-3.3-11.88Zm-4.73-17.17l-6.16-22.34-6.16,22.34h12.33Z"/>
      <path class="cls-1" d="m258.6,0l-25.75,77.03h-30.04L177.06,0h26.52l14.31,51.39L232.08,0h26.52Z"/>
      <path class="cls-1" d="m288.87,0v77.03h-24.76V0h24.76Z"/>
      <path class="cls-1" d="m372.72,38.52c0,23.44-16.4,38.52-42.15,38.52h-30.7V0h30.7c25.75,0,42.15,15.19,42.15,38.52Zm-24.76,0c0-9.24-5.94-15.85-17.39-15.85h-5.94v31.69h5.94c11.45,0,17.39-6.49,17.39-15.85Z"/>
      <path class="cls-1" d="m61.85,97v46.11c0,22.34-10.56,32.35-30.81,32.35-18.49,0-30.59-11.89-31.03-26.96l23.22-4.4c.22,3.3,2.2,7.26,7.15,7.26,5.5,0,6.82-4.07,6.82-8.25v-46.11h24.65Z"/>
      <path class="cls-1" d="m173.32,153.34v20.69h-54.25v-11.88h-20.03l-5.06,11.88h-26.63l36.54-77.03h68.45v20.69h-28.5v8.58h24.98v17.83h-24.98v9.24h29.49Zm-54.25-8.36v-27.29h-.99l-11.67,27.29h12.66Z"/>
      <path class="cls-1" d="m256.73,129.46v44.57h-11l-2.2-8.14c-5.72,5.94-13.98,9.57-24.65,9.57-23.11,0-40.61-17.17-40.61-39.95s17.5-39.84,40.61-39.84c13.98,0,25.97,6.27,33.23,16.4l-20.58,13.54c-2.86-3.74-7.37-5.94-12.66-5.94-9.24,0-15.96,6.6-15.96,15.85,0,9.9,6.71,16.84,15.96,16.84,6.6,0,11.45-2.2,13.98-6.93h-15.96v-15.96h39.84Z"/>
      <path class="cls-1" d="m320.89,153.34v20.69h-54.25v-77.03h53.26v20.69h-28.5v8.58h24.98v17.83h-24.98v9.24h29.49Z"/>
      <path class="cls-1" d="m361.39,150.26h-6.93v23.77h-24.76v-77.03h32.57c21.24,0,32.57,9.79,32.57,27.62,0,9.79-4.07,16.62-10.89,20.69l16.29,28.72h-26.85l-12-23.77Zm-6.93-19.81h7.81c5.06,0,7.59-1.76,7.59-5.83s-2.53-5.94-7.59-5.94h-7.81v11.78Z"/>
    </g>
  </g>
</svg>