<?xml version="1.0" encoding="UTF-8"?>
<svg id="Lag_2" data-name="Lag 2" xmlns="http://www.w3.org/2000/svg" viewBox="0 0 364.15 161.1">
  <defs>
    <style>
      .cls-1 {
        fill: #ffffff;
        stroke-width: 0px;
      }

    </style>
  </defs>
  <g id="Lag_2-2" data-name="Lag 2">
    <g>
      <path class="cls-1" d="m118.34,144.65c-.54-2.89-3.31-3.11-5.57-3.71-2.3-.61-4.75-.78-7.14-.91-4.38-.24-8.78-.24-13.16-.47-2.18-.12-4.35-.52-6.51-.83-1.47-.21-2.99-.34-4.39-.78-2.72-.85-5.17-2.26-7.33-4.18-1.98-1.76-4.15-3.04-6.88-3.39-3.01-.39-5.96-.27-8.96.08-3.13.36-6.06,1.37-9.04,2.22-.79.23-1.53.66-2.3.98-1.24.5-2.69-.19-3.06-1.5-.85-3.04-2.65-5.49-4.62-7.87-2.29-2.77-5.07-4.93-8.32-6.39-2.13-.96-4.29-1.98-6.74-2.05-1.92-.06-3.83-.36-5.75-.38-1.41-.01-2.84.22-4.23.46-.33.06-.65.55-.85.91-.15.27-.1.65-.14.99-.16-.04-.28-.04-.28-.07-.37-2.41-1.89-4.32-2.83-6.48-.74-1.69-1.46-3.4-2.04-5.15-.96-2.93-1.86-5.88-2.68-8.85-.38-1.37-.54-2.81-.71-4.23-.41-3.46-1-6.91-1.09-10.38-.08-3.54.33-7.1.57-10.64.1-1.39.33-2.77.52-4.15.5-3.73,1.52-7.32,2.81-10.84.75-2.06,1.39-4.16,2.22-6.19.69-1.66,1.57-3.25,2.41-4.84.68-1.29,1.4-2.57,2.18-3.8,1.38-2.18,2.71-4.39,4.26-6.44,1.79-2.36,3.77-4.58,5.72-6.81.81-.92,1.76-1.72,2.64-2.58.26-.25.46-.56.56-.67.95,1.1,1.83,2.32,2.92,3.31,2.01,1.83,4.22,3.31,6.74,4.49,2.21,1.04,4.5,1.39,6.76,2.04,4.42,1.28,8.93.98,13.4.64,2.59-.19,5.13-1.01,7.7-1.51,1.08-.21,2.2-.23,3.26-.49,1.31-.31,2.57-.81,3.87-1.16.91-.24,1.86-.33,2.77-.54,1.67-.38,3.32-.83,5-1.2.99-.22,2-.42,3.01-.51,2.17-.19,4.35-.34,6.52-.43,1.51-.06,3.03-.11,4.53.02,1.53.13,3.05.5,4.57.75,1.08.18,2.18.28,3.25.5,1.43.3,2.85.64,4.24,1.06,2,.61,3.98,1.28,5.96,1.98,1.28.45,2.49,1.11,3.79,1.47,2.17.6,4.37,1.13,6.59,1.52,5.35.95,10.75.35,16.12.31.67,0,1.33-.39,1.85-.55,1.01,1.64,2.03,3.21,2.96,4.83.93,1.64,1.8,3.31,2.65,4.99.82,1.61,1.63,3.24,2.35,4.9.68,1.55,1.37,3.12,1.81,4.75.87,3.16,1.6,6.36,2.32,9.56.36,1.62.54,3.28.85,4.91.06.3.33.77.53.79.37.04.96-.09,1.12-.36,1.36-2.29,3.66-3.23,5.89-4.28.38-.18.8-.32,1.21-.39,3.84-.64,7.7-.86,11.58-.35.92.12,1.85.16,2.78.26,1.91.2,2.85,1.24,2.86,3.13,0,1.82,0,3.64,0,5.46-.01,1.76-.76,2.22-2.48,1.74-2.04-.57-4.1-1.16-6.2-1.48-.95-.15-2.06.2-3,.57-.93.37-.93,1.67-.02,2.14,1.05.54,2.17.98,3.3,1.36,3.12,1.04,6.25,2.11,8.47,4.7,1.17,1.37,2.04,2.89,2.15,4.86.16,2.84-.13,5.54-1.85,7.82-1.26,1.68-2.81,3.09-4.82,4.03-4.91,2.3-10.03,2.28-15.23,1.7-1.23-.14-2.47-.28-3.7-.36-1.71-.11-2.96-.79-3.53-2.51-.1-.31-.47-.52-.71-.78-.24.32-.61.61-.7.97-.37,1.45-.53,2.97-1.02,4.38-.77,2.26-1.7,4.46-2.62,6.66-.57,1.35-1.2,2.68-1.91,3.96-2.36,4.26-4.92,8.41-8.04,12.14-2.22,2.65-4.62,5.18-7.11,7.58-2.22,2.14-4.65,4.05-7.02,6.02-.85.71-1.81,1.29-2.72,1.94-.74.53-1.49,1.06-2.26,1.61Zm-57-77.01c.18,1.41.45,2.53.43,3.65-.03,1.81-.38,3.62-.39,5.42-.05,7.78-.02,15.56-.02,23.34,0,1.46,1.08,2.21,2.49,1.76.29-.09.59-.21.88-.21,1.74.02,3.48.06,5.22.12.9.03,1.81.1,2.7.2,1.38.17,1.97-.34,1.97-1.75,0-14.84,0-29.67.02-44.51,0-1.09-.38-1.54-1.48-1.53-4.88.03-9.77.03-14.65,0-1.06,0-1.61.51-1.94,1.43-.36.98-.74,1.96-1.11,2.94-.49,1.29-1,2.57-1.46,3.86-.65,1.84-1.24,3.7-1.92,5.53-.91,2.44-1.89,4.85-2.81,7.28-.62,1.65-1.13,3.36-1.82,4.98-.19.45-.89,1.04-1.25.98-.49-.08-1.08-.66-1.28-1.16-1.38-3.49-2.66-7.02-4-10.53-.98-2.57-2-5.12-2.98-7.68-.76-2-1.51-4.02-2.22-6.04-.4-1.13-1.01-1.71-2.36-1.62-1.93.14-3.87.04-5.81.04-3.06,0-6.12,0-9.19,0-1.43,0-1.97.77-1.56,2.11.1.32.09.69.09,1.03,0,14.29-.02,28.59-.03,42.88,0,1.58.29,1.75,1.85,1.7,2.41-.07,4.83-.06,7.24.07,1.8.09,2.47-.37,2.47-2.11,0-8.29,0-16.58,0-24.87,0-.53-.07-1.08-.19-1.59-.33-1.43-.47-2.84.52-4.43.75,1.01,1.54,1.84,2.05,2.82.51.98.71,2.12,1.12,3.16.71,1.81,1.5,3.59,2.21,5.4,1.25,3.19,2.48,6.39,3.71,9.58.5,1.3,1.09,2.57,1.46,3.9.36,1.31,1.61,2.23,2.9,1.95.67-.15,1.36-.27,2.04-.28,1.7-.03,3.41.02,5.12.02,1.14,0,1.74-.54,1.97-1.66.13-.67.24-1.35.47-1.99.85-2.37,1.75-4.72,2.61-7.09.85-2.36,1.71-4.73,2.49-7.11.51-1.56.76-3.23,1.38-4.74.72-1.77,1.19-3.72,3.07-5.26Zm54.3,23.5h0c0-2.9.17-5.82-.05-8.71-.2-2.57-.61-5.17-1.31-7.64-.71-2.51-2.36-4.47-4.84-5.59-2.09-.95-4.21-1.69-6.57-1.69-2.73,0-5.47-.2-8.2-.28-2.38-.07-4.75-.08-7.13-.14-1.45-.04-1.99.45-1.99,1.92,0,1.59,0,3.18,0,4.76,0,1.28.97,2.02,2.23,1.74.49-.11.97-.29,1.46-.3,1.82-.03,3.64-.05,5.46.02,1.92.07,3.85.13,5.74.4,1.7.25,2.89,2.02,1.92,3.63-.55.92-1.43,1.08-2.33,1.18-.84.09-1.71,0-2.54.12-1.36.19-2.71.45-4.05.76-1.68.39-3.45.66-5,1.35-4.87,2.17-6.65,5.96-5.95,11.36.11.82.3,1.64.47,2.45.6,2.88,3.92,5.66,6.8,5.83,1.66.1,3.34.11,4.99-.02.9-.07,1.8-.5,2.66-.84,1.46-.59,2.53-1.65,3.55-2.85.45-.53,1.43-.96,2.08-.86.88.14.61,1.17.64,1.88,0,.12,0,.23,0,.35-.01,1.78.42,2.04,2.21,1.96,2.37-.12,4.76-.1,7.13,0,1.65.07,2.76-.33,2.67-2.33-.13-2.82-.03-5.65-.03-8.48Zm32.8-18.24c0-1.39-.01-2.79,0-4.18,0-.76-.34-1.22-1.09-1.17-1.33.09-2.73.04-3.95.49-1.24.46-2.35,1.38-3.4,2.23-.57.46-.84,1.27-1.36,1.81-.85.89-2.14.73-2.25-.25-.09-.71-.06-1.49.15-2.17.52-1.67-.33-2.73-2.14-2.56-1.26.12-2.52.23-3.78.22-1.88-.02-3.76-.13-5.63-.22-1.41-.07-2.16.97-1.69,2.31.12.35.15.75.15,1.13,0,8.79.01,17.58,0,26.37,0,.8-.12,1.61-.28,2.39-.34,1.68.64,2.81,2.34,2.6.27-.03.54-.11.8-.1,2.86.04,5.72.1,8.58.13,1.21.01,1.94-.7,1.9-1.9-.02-.76-.22-1.52-.22-2.29,0-1.97,0-3.95.1-5.91.14-2.76.26-5.52.58-8.26.36-3.07,3.79-5.18,6.45-5.35,1.12-.07,2.25-.03,3.37,0,.96.02,1.43-.35,1.4-1.36-.04-1.32-.01-2.63,0-3.95Zm15.22,21.17c.5-.03,1.01-.03,1.5-.11,1.14-.2,2.53-1.27,2.25-1.82-.4-.79-1.11-1.6-1.9-1.97-1.55-.74-3.24-1.2-4.89-1.75-1.96-.65-3.8-1.46-5.08-3.21-.22-.3-.85-.56-1.17-.46-.3.1-.59.68-.63,1.07-.12,1.07.02,2.17-.17,3.22-.29,1.61-.24,2.08,1.25,2.79,2.78,1.32,5.77,1.89,8.82,2.24Z"/>
      <path class="cls-1" d="m297.6,76.52c0,7.82,0,15.64,0,23.47,0,2.17-.6,2.76-2.75,2.75-3.33-.01-6.66-.01-9.99,0-1.79,0-2.05-.19-2.33-2.02-.17-1.08-.9-1.4-1.7-.61-4.09,3.98-8.99,3.94-13.87,2.36-2.83-.91-5.08-3.06-6.68-5.78-2.92-4.97-3.36-10.31-2.39-15.79.67-3.76,2.21-7.26,4.97-10.02,3.84-3.84,8.53-5.09,13.84-4.11,1.27.23,2.5.49,3.38,1.59.22.28.65.41,1,.56.96.42,1.39.14,1.38-.92-.05-5.03-.11-10.06-.18-15.09-.02-1.71.63-2.44,2.33-2.45,3.52-.01,7.04-.01,10.57.01,1.85.01,2.44.75,2.43,2.58-.03,7.82-.01,15.64-.01,23.47,0,0,0,0,0,0Zm-14.57,8.03c-.35-1.34-.72-2.85-1.15-4.34-.52-1.83-2.09-2.45-3.69-2.73-1.45-.26-3.7,1.28-4.28,2.7-.85,2.06-1.42,4.21-1.05,6.44.35,2.11.66,4.26,3.01,5.35,1.08.5,2.12.66,3.1.17,1.38-.69,2.68-1.53,3.01-3.27.26-1.35.64-2.68,1.04-4.31Z"/>
      <path class="cls-1" d="m78.67,5.71c6.82-.38,13.62.4,20.14,2.51,2.29.81,4.64,1.43,6.95,2.17.76.24,1.53.5,2.23.87.24.13.37.63.38.97-.16,4.86.02,9.96,3.34,13.87.69.74,1.9,2.92-.09,2.57-9.23-3.42-19.26-4.51-29.03-3.36-2.74.47-5.42,1.39-8.2,1.68-2.39.7-4.75,1.43-7.22,1.75-1.57.35-3.08.91-4.65,1.26-4.18.4-8.33,1.23-12.56.85-1.34-.12-2.65-.66-3.98-.69-2.18-.04-4.07-.94-5.96-1.78-2.58-1.21-5.03-2.83-6.97-4.95-1.06-1.1-.99-1.64.26-2.52,4.93-3.76,10.14-6.93,15.89-9.27,2.36-1,4.7-2.16,7.18-2.85,4.37-.98,8.71-2.12,13.13-2.86,3-.5,6.1-.43,9.15-.62,0,.13,0,.26,0,.38Z"/>
      <path class="cls-1" d="m25.84,160.28c5.49,1.1-17.8,1.11-11.66-.04-6.87-2.17-11.27-6.63-13.35-13.5-1.16,6.28-1-17.57-.05-11.06,8.46-24.81,41.52-14.98,39.99,9.83-1.32-.72-1.52-.02-1.65.79-1.11,6.81-7.61,11.7-13.28,13.98Z"/>
      <path class="cls-1" d="m252.77,84.96c0,5.07,0,10.15,0,15.22,0,2.14-.41,2.54-2.59,2.54-3.41,0-6.82,0-10.23.01-1.83,0-2.34-.57-2.24-2.39.03-.61-.15-1.24-.23-1.86-.54.35-1.2.6-1.62,1.07-3.36,3.79-7.59,4.48-12.27,3.43-3.5-.78-5.6-3.1-7.13-6.3-1.16-2.43-1.3-4.91-1.32-7.46-.05-5.61-.03-11.23-.05-16.85,0-1.04-.09-2.09-.08-3.13.02-1.61.6-2.2,2.18-2.21,3.64-.02,7.28-.02,10.92-.01,1.46,0,2.07.71,2.06,2.33-.02,4.03-.06,8.05-.07,12.08,0,2.52.03,5.03.07,7.55.03,1.78,1.33,2.68,2.7,3.29,1.34.59,2.43-.2,3.4-1.14,1.01-.98,1.44-2.14,1.43-3.54-.04-6-.04-12-.06-18.01,0-2.12.61-2.6,2.75-2.55,3.21.08,6.43.06,9.65.02,2.23-.03,2.72.43,2.71,2.69-.01,5.07,0,10.14,0,15.22,0,0,0,0,0,0Z"/>
      <path class="cls-1" d="m189.46,86.04c0-2.05,0-4.11,0-6.16,0-1.79-.59-2.3-2.37-1.96-2.22.42-3.13-.33-3.13-2.6,0-1.98-.02-3.95,0-5.93.02-1.89.76-2.65,2.58-2.35,2.35.39,3.25.16,2.88-2.78-.24-1.91-.08-3.87-.07-5.8,0-1.49.65-2.11,2.15-2.12,3.57,0,7.13,0,10.7,0,1.42,0,2.17.7,2.16,2.15-.02,2.24-.08,4.49-.19,6.73-.06,1.17.25,2.16,1.84,1.92,1.06-.16,2.16-.12,3.25-.13,1.56-.01,2.34.68,2.38,2.22.05,2.17.06,4.34.02,6.51-.03,1.59-1.02,2.39-2.71,2.31-1.04-.05-2.09-.16-3.13-.18-1.21-.02-1.63.39-1.63,1.59,0,3.18,0,6.35.1,9.53.07,2.53,2.36,3.97,4.71,3.04,1.65-.65,2.66,0,2.68,1.8.02,2.05.02,4.11,0,6.16-.02,1.7-.81,2.58-2.45,2.84-3.69.57-7.39.98-11.08.06-3.38-.85-5.69-2.98-7.37-6.02-1.92-3.47-1.11-7.18-1.3-10.81Z"/>
      <path class="cls-1" d="m112.24,148.18c-.48.05-.84.02-1.13.14-1.61.71-3.2,1.49-4.82,2.19-.81.35-1.67.6-2.51.86-2.79.88-5.57,1.81-8.4,2.59-1.33.37-2.75.42-4.12.65-5.67.96-11.37,1.57-17.11,1.02-3.85-.37-7.74-.76-11.49-1.65-4.14-.99-8.33-2.01-12.18-3.96-1.19-.61-2.42-1.15-3.66-1.65-.54-.22-1.15-.26-1.72-.38.16-1.91.42-3.97.48-6.02.04-1.28.52-2.13,1.67-2.62,1.3-.55,2.6-1.08,3.92-1.58.92-.35,1.86-.68,2.82-.9,1.45-.35,2.93-.61,4.4-.89,1.62-.3,3.25-.78,4.88-.8,3.02-.02,5.66,1.05,7.98,3.11,2.88,2.54,6.26,4.11,10.03,5.11,6.31,1.67,12.69.91,19.04,1.27,2.47.14,5.02.21,7.42,1.16.94.37,2.05.3,3.06.55.84.2,1.52.67,1.43,1.79Z"/>
      <path class="cls-1" d="m133.4,1.34c19.12,7.13,5.25,36.32-12.08,25.95-18.69-12.47,3.09-32.7,12.08-25.95Z"/>
      <path class="cls-1" d="m303.93,84.8c0-5.07,0-10.15,0-15.22,0-2.18.68-2.64,2.84-2.54,2.94.14,5.88.05,8.82.05.46,0,.93-.1,1.39-.07,1.38.08,2,.64,2.04,2.03.05,1.59-.03,3.17-.03,4.76,0,8.56.02,17.12.04,25.68,0,2.95-.31,3.24-3.26,3.22-3.18-.02-6.36,0-9.53.02-1.83.02-2.36-.56-2.36-2.59,0-5.11,0-10.23,0-15.34.02,0,.03,0,.05,0Z"/>
      <path class="cls-1" d="m311.31,65.27c-3.96.04-6.66-1.9-8.12-5.43-.43-1.03-.39-2.54.03-3.6,1.97-5.04,8.31-6.51,12.23-4.3,3.88,2.18,5.1,4.64,3.67,8.87-.84,2.49-3.01,3.71-5.51,4.24-.75.16-1.54.15-2.31.22Z"/>
      <path class="cls-1" d="m363.95,77.1c-.12.5-.25,1.01-.37,1.51-.49-2.63-2.01-4.62-3.79-6.4-1.03-1.02-2.2-1.97-3.47-2.66-1.77-.98-3.61-2.1-5.55-2.44-5.68-.97-11.41-1.27-16.84,1.34-1.37.66-2.77,1.4-3.89,2.4-1.36,1.22-2.5,2.7-3.6,4.18-1.51,2.01-2.35,4.36-2.56,6.83-.4,4.72-.05,9.28,2.74,13.42,1.6,2.38,3.56,4.3,6.02,5.64,2.2,1.19,4.58,1.97,7.14,2.21,6.19.56,12.25.51,17.55-3.35,2.79-2.03,5.12-4.48,5.89-8.03.06-.26.17-.51.34-.98.18.76.31,1.28.43,1.79.05-.02.11-.04.16-.06v-15.37c-.07,0-.13,0-.2-.01Zm-8.49,9.01c-1.47,1.19-2.98,2.32-4.48,3.46-1.9,1.45-3.8,2.89-5.71,4.32-1.57,1.17-3.13,2.36-4.74,3.48-.46.32-1.06.49-1.62.58-1.74.29-2.55-.45-2.53-2.22.04-2.52.1-5.03.14-7.54.02-1.12,0-2.25,0-3.37-.04,0-.08,0-.12,0,0-3.52.02-7.04-.01-10.56,0-1,.13-2.05,1.06-2.38.73-.25,1.83-.15,2.49.26,1.76,1.09,3.38,2.43,5.04,3.67,1.88,1.4,3.76,2.81,5.64,4.22,1.67,1.25,3.36,2.47,4.99,3.76.74.58.66,1.68-.15,2.33Z"/>
      <path class="cls-1" d="m97.84,94.39c-1.71.18-3.71-1.58-4.19-3.26-.22-.76.26-2.57,1.5-3.39,1.11-.73,2.21-1.48,3.69-1.37.84.06,1.7-.34,2.56-.38,1.69-.06,2.65,1.06,2.21,2.66-.64,2.32-1.69,4.42-4.11,5.4-.52.21-1.11.23-1.67.33Z"/>
    </g>
  </g>
</svg>