<?xml version="1.0" encoding="UTF-8"?>
<svg id="Lag_2" data-name="Lag 2" xmlns="http://www.w3.org/2000/svg" viewBox="0 0 95.59 95.59">
  <defs>
    <style>
      .cls-1 {
        fill: #ffffff;
        stroke-width: 0px;
      }
    </style>
  </defs>
  <g id="Logo_-_negativ_hvid_med_magenta_B-boks" data-name="Logo - negativ/hvid med magenta B-boks">
    <g>
      <path class="cls-1" d="m47.8,0C21.4,0,0,21.4,0,47.8s21.4,47.8,47.8,47.8,47.8-21.4,47.8-47.8S74.19,0,47.8,0Zm1.93,74.62h-20.47V22.14h19.96c11.37,0,17.52,5.39,17.52,13.39,0,6.49-3.96,10.45-8.26,11.62v.17c5.65,1.26,9.86,5.22,9.86,12.04,0,9.6-7.25,15.25-18.62,15.25Z"/>
      <path class="cls-1" d="m55.87,58.62c0-4.72-2.61-7.16-7.83-7.16h-7.24v14.15h7.16c5.14,0,7.92-2.36,7.92-6.99"/>
      <path class="cls-1" d="m55.12,37.14c0-3.62-2.27-5.98-7.33-5.98h-6.99v12.38h6.91c5.22,0,7.41-2.36,7.41-6.4"/>
    </g>
  </g>
</svg>