<?xml version="1.0" encoding="UTF-8"?>
<svg id="Lag_2" data-name="Lag 2" xmlns="http://www.w3.org/2000/svg" viewBox="0 0 194 54">
  <defs>
    <style>
      .cls-1 {
        fill: none;
      }

      .cls-1, .cls-2 {
        stroke-width: 0px;
      }

      .cls-2 {
        fill: #fff;
      }
    </style>
  </defs>
  <g id="Layer_1" data-name="Layer 1">
    <path class="cls-2" d="m72.7,39.6h-4.5l-8.5-22.2h4.1l3.1,8.4c1.2,3.3,2.5,6.7,3.6,10,1.2-3.3,2.4-6.8,3.7-10.1l3.1-8.3h4l-8.6,22.2m10.6,0v-22.2h3.8v22.2h-3.8Zm4.6-26.9c0,1.4-1.1,2.6-2.6,2.6-1.4,0-2.6-1.1-2.6-2.6,0-1.4,1.1-2.6,2.6-2.6h0c1.4,0,2.5,1.1,2.6,2.6,0-.1,0,0,0,0m17.7,17.5v-2l-3.2.7c-5.7,1.3-8.2,2.1-8.2,4.9,0,2,1.7,3.2,4.6,3.2,3.6,0,6.8-2,6.8-6.8h0Zm3.8-5.5v15h-3.7v-2.9c-1.4,2.2-4.2,3.5-7.5,3.5-4.5,0-7.8-2-7.8-6.4,0-5.8,5.8-6.7,11.7-8l3.6-.8v-.1c0-3.4-2.3-4.7-5.4-4.7-2.7,0-5.2,1-7.2,2.8l-1.3-3.2c2.5-1.9,5.5-3,8.7-2.9,5.6-.1,8.9,2.9,8.9,7.7m21.8,3.8c0-5-2.8-8.2-7-8.2s-7.2,3.2-7.2,8.3,2.9,8.2,7.1,8.2c4.3-.1,7.1-3.3,7.1-8.3h0Zm3.9,0c0,7.1-4.2,11.7-10.4,11.7-2.9.1-5.7-1.2-7.5-3.5v9.5h-3.8v-28.8h3.7v3.5c1.7-2.6,4.7-4.1,7.9-4,6,0,10.1,4.5,10.1,11.6m3.3,11.1h3.8V11h-3.8v28.6h0Zm22.3-9.4v-2l-3.2.7c-5.7,1.3-8.2,2.1-8.2,4.9,0,2,1.7,3.2,4.6,3.2,3.6,0,6.8-2,6.8-6.8h0Zm3.7-5.5v15h-3.7v-2.9c-1.4,2.2-4.1,3.5-7.5,3.5-4.5,0-7.9-2-7.9-6.4,0-5.8,5.8-6.7,11.8-8l3.6-.8v-.1c0-3.4-2.3-4.7-5.4-4.7-2.7,0-5.3,1-7.2,2.8l-1.3-3.2c2.5-1.9,5.5-3,8.7-2.9,5.6,0,8.9,3,8.9,7.7m14.6,13.5c-2,5.3-4.6,7.4-9.4,8.5l-1.2-3.1c2.3-.8,4.4-1.5,5.9-3.7l-8.6-22.5h4.1l3,8c1.2,3.3,2.8,7.3,3.7,10,1-2.7,2.4-6.6,3.7-10l3-8h4l-8,20.8"/>
    <path class="cls-2" d="m28.5,27l-19.5,9.6c-1.4-3-2.1-6.3-2.1-9.6s.8-6.8,2.3-9.8l19.3,9.8Zm.4-21.8c-5.3,0-10.3,1.9-14.3,5.3l22.8,12.2v8.5l-23,12.3c9.1,8.1,23,7.2,31.1-1.9s7.2-23-1.9-31.1c-4-3.6-9.3-5.6-14.7-5.5,0,0,0,.2,0,.2Z"/>
    <rect class="cls-1" width="194" height="54"/>
  </g>
</svg>